<svg width="100" height="100" viewBox="0 0 100 100" fill="none" xmlns="http://www.w3.org/2000/svg">
<path d="M57.7575 82H85.4631V47.645C85.4631 38.4098 83.6161 31.3911 79.922 26.5887C75.8585 21.6017 69.0245 18.7388 59.4198 18V34.3463C62.7445 34.3463 65.5151 35.7316 67.7315 38.5022C68.8398 39.9798 69.3939 42.8427 69.3939 47.0909V52.355H57.7575V82ZM14.5367 82H42.2424V47.645C42.2424 38.4098 40.58 31.6681 37.2553 27.4199C32.8224 21.8788 25.8037 18.7388 16.1991 18V34.3463C21.9249 34.3463 25.1572 37.2092 25.896 42.9351C26.0807 43.6739 26.1731 45.0592 26.1731 47.0909V52.355H14.5367V82Z" fill="white"/>
</svg>
