<svg width="100" height="100" viewBox="0 0 100 100" fill="none" xmlns="http://www.w3.org/2000/svg">
<path d="M42.2424 82H14.5368V47.645C14.5368 38.4098 16.3838 31.3911 20.0779 26.5887C24.1414 21.6017 30.9755 18.7388 40.5801 18V34.3463C37.2554 34.3463 34.4849 35.7316 32.2684 38.5022C31.1602 39.9798 30.6061 42.8427 30.6061 47.0909V52.355H42.2424V82ZM85.4632 82H57.7576V47.645C57.7576 38.4098 59.4199 31.6681 62.7446 27.4199C67.1775 21.8788 74.1963 18.7388 83.8009 18V34.3463C78.075 34.3463 74.8427 37.2092 74.1039 42.9351C73.9192 43.6739 73.8269 45.0592 73.8269 47.0909V52.355H85.4632V82Z" fill="white"/>
</svg>
